<svg width="412" height="650" viewBox="0 0 412 650" fill="none" xmlns="http://www.w3.org/2000/svg">
<g clip-path="url(#clip0_520_1071)">
<rect width="412" height="650" rx="10" fill="white"/>
<g clip-path="url(#clip1_520_1071)">
<rect width="1000.85" height="667.236" transform="translate(-15 -17)" fill="#FAEBCC"/>
<path d="M333.159 12.9596L323.107 5.42075C318.2 1.74069 314.4 -3.21792 312.122 -8.91268C307.52 -20.4191 296.932 -28.4368 284.608 -29.747L-95.4648 -70.1571C-136.527 -74.5229 -172.317 -42.3364 -172.317 -1.04289V601.869C-172.317 640.254 -141.199 671.372 -102.813 671.372H405.245C425.905 671.372 444.793 659.699 454.033 641.22L470.479 602.844L491.069 560.453C492.872 556.741 494.341 552.876 495.458 548.904L503.518 520.246C505.241 514.122 506.114 507.79 506.114 501.428V472.64V430.146C506.114 423.785 505.241 417.453 503.518 411.329L496.375 385.93C494.652 379.806 493.779 373.474 493.779 367.112V344.627C493.779 338.623 494.557 332.645 496.093 326.841L503.8 297.726C505.336 291.923 506.114 285.944 506.114 279.941V256.91C506.114 250.907 505.336 244.928 503.8 239.125L495.2 206.636C494.254 203.063 493.025 199.571 491.524 196.193L483.49 178.118C479.433 168.988 473.454 160.841 465.962 154.23L462.252 150.956C456.806 146.151 450.64 142.229 443.98 139.333L432.562 134.369C425.902 131.473 419.736 127.551 414.29 122.746L405.417 114.917C401.294 111.278 397.616 107.163 394.463 102.658L380.022 82.0283L360.834 47.7641L349.732 30.6839C345.29 23.8498 339.68 17.8503 333.159 12.9596Z" fill="white" stroke="white" stroke-width="0.695038"/>
<path d="M245.888 1.30137L240.762 -4.06846C238.583 -6.35116 236.913 -9.07028 235.863 -12.0461C232.8 -20.726 224.719 -26.6326 215.519 -26.9165L-105.245 -36.815C-145.256 -38.0496 -178.036 -5.31897 -176.863 34.6932L-160.607 589.034C-159.488 627.181 -127.821 657.29 -89.6663 656.485L402.054 646.108C417.71 645.777 431.401 635.474 436.053 620.522L447.531 590.391C448.778 587.119 450.27 583.945 451.995 580.897L466.092 555.992L474.715 537.179C477.116 531.94 478.857 526.422 479.896 520.754L482.395 507.122C483.756 499.699 483.899 492.103 482.818 484.633L478.331 453.634L469.43 412.469L467.186 396.382C466.459 391.176 466.326 385.905 466.788 380.668L469.43 350.72V333.536C469.43 325.762 470.734 318.044 473.288 310.702L478.331 296.204L481.962 282.999C483.613 276.995 484.45 270.796 484.45 264.569V261.394C484.45 256.062 483.836 250.747 482.621 245.555L479.746 233.271C478.805 229.247 477.506 225.316 475.866 221.523L469.43 206.641L460.207 189.612C456.735 183.203 452.277 177.38 446.995 172.356L437.367 163.197C433.904 159.903 430.111 156.976 426.047 154.46L401.644 139.354C398.627 137.486 395.472 135.852 392.205 134.466L372.052 125.916C364.346 122.647 357.293 118.012 351.234 112.235L340.21 101.723C337.724 99.3537 335.418 96.8029 333.31 94.0921L324.794 83.144L313.696 67.6064C311.829 64.9919 310.241 62.1883 308.96 59.2418C306.56 53.7208 303.095 48.7268 298.764 44.5451L289.192 35.3029L266.94 18.0579L252.905 7.53164C250.398 5.65167 248.051 3.56783 245.888 1.30137Z" fill="url(#paint0_linear_520_1071)"/>
<path d="M134.177 -16.9875L124.502 -27.6304C122.774 -29.5309 121.316 -31.6596 120.167 -33.9569C115.597 -43.096 106.421 -49.0294 96.2117 -49.4473L-127.399 -58.6009C-166.867 -60.2166 -199.745 -28.6564 -199.745 10.8447V610.905C-199.745 649.291 -168.627 680.409 -130.241 680.409H283.134C308.902 680.409 331.601 663.46 338.922 638.753C340.433 633.653 342.637 628.783 345.471 624.281L368.306 588.015C370.939 583.832 373.119 579.381 374.808 574.735L382.703 553.025C385.471 545.412 386.888 537.374 386.888 529.273V506.766C386.888 500.719 386.099 494.699 384.541 488.857L374.614 451.632C373.056 445.79 372.267 439.77 372.267 433.724V382.524V346.73C372.267 341.37 372.887 336.029 374.115 330.811L385.04 284.38C386.268 279.163 386.888 273.821 386.888 268.461V247.248C386.888 236.458 384.375 225.816 379.55 216.165L364.515 186.095C362.379 181.823 359.808 177.782 356.843 174.037L338.192 150.478C330.586 140.87 320.574 133.444 309.173 128.952L271.831 114.242C268.131 112.784 264.564 111.012 261.167 108.945L236.39 93.8626C228.372 88.9823 221.426 82.5286 215.97 74.8908L205.963 60.8811L190.596 32.5109C185.09 22.3448 177.134 13.713 167.45 7.39726L147.639 -5.523C142.682 -8.7558 138.158 -12.6085 134.177 -16.9875Z" fill="url(#paint1_linear_520_1071)"/>
<ellipse cx="177.042" cy="5.03114" rx="8.6744" ry="2.79916" transform="rotate(31.5075 177.042 5.03114)" fill="#FEFFFF"/>
<ellipse cx="420.382" cy="547.537" rx="14.3951" ry="6.60916" transform="rotate(136.627 420.382 547.537)" fill="#FEFFFF"/>
<ellipse cx="408.178" cy="533.698" rx="5.75614" ry="2.6428" transform="rotate(136.627 408.178 533.698)" fill="#FEFFFF"/>
<g clip-path="url(#clip2_520_1071)">
<path d="M99.4831 373.083C103.542 374.541 107.554 376.138 111.665 377.438C135.598 385 159.257 385.431 182.502 374.669C193.216 369.707 203.867 364.548 214.82 360.158C223.036 356.864 231.683 354.654 239.44 352.188C239.545 352.2 238.799 352.106 237.943 352.002C237.908 351.564 237.815 351.191 237.868 350.83C239.62 338.831 241.949 326.868 241.088 314.648C240.435 305.385 238.141 296.494 234.228 288.052C233.96 287.469 233.582 286.932 232.883 285.737V298.581C229.354 296.476 226.297 293.899 225.767 289.264C225.494 289.212 225.226 289.154 224.952 289.101C223.694 294.651 222.436 300.207 221.231 305.548C215.431 301.449 216.241 290.372 223.694 281.615C220.329 282.245 217.72 283.732 216.427 286.484C215.222 289.049 214.802 291.987 214.057 294.675C211.227 290.226 211.146 283.761 213.981 279.697C216.992 275.377 221.167 274.917 225.878 276.287C225.965 275.978 226.047 275.675 226.134 275.366C223.345 274.34 220.556 273.319 217.848 272.322C220.771 268.399 224.702 268.305 229.843 272.276C233.075 266.795 236.435 264.837 241.536 265.787C240.057 266.865 238.671 267.647 237.582 268.731C236.563 269.751 235.853 271.086 235.265 272.567C240.168 269.466 245.181 267.355 250.923 268.993C254.131 269.915 256.728 271.891 258.493 275.004C249.133 273.508 243.361 273.405 241.175 274.695C243.737 275.232 246.614 275.436 249.147 276.473C252.111 277.686 252.938 280.595 253.234 283.854C248.489 282.286 243.982 280.805 239.475 279.318C239.317 279.54 239.154 279.756 238.997 279.977C244.261 284.047 245.647 289.515 245.251 296.54C242.631 293.777 240.54 291.567 238.45 289.358C238.182 289.399 237.92 289.439 237.652 289.486C248.914 309.034 247.476 329.801 244.069 351.395C252.943 336.441 258.516 320.741 264.653 305.221C262.918 307.058 261.183 308.9 259.343 310.853C258.027 306.708 259.873 301.671 263.483 298.138C261.736 298.581 259.966 298.936 258.248 299.485C256.507 300.038 254.818 300.773 253.101 301.438C252.623 296.616 255.634 294.471 262.971 294.634C258.079 291.917 253.485 293.363 248.716 294.611C252.611 288.559 257.811 288.011 266.866 292.01C265.381 290.477 263.896 288.944 262.476 287.48C265.969 286.734 268.153 287.935 270.61 291.865C272.683 291.317 274.605 290.489 276.567 290.401C277.825 290.343 279.13 291.369 281.022 292.168C278.145 293.194 275.985 293.963 273.831 294.733C273.883 294.984 273.93 295.229 273.982 295.479C277.569 294.442 280.824 294.733 283.083 297.986C285.686 301.729 285.168 305.641 283.171 309.757C282.548 305.163 281.465 300.96 276.742 299.922C277.901 302.837 279.461 305.892 280.306 309.139C281.197 312.567 279.939 315.727 277.709 318.601C276.73 314.27 275.805 310.194 274.902 306.177C272.835 308.638 270.948 310.882 268.607 313.669V303.898C262.965 319.89 257.503 335.38 251.977 351.04C266.336 350.118 280.102 352.322 292.994 359.983C292.447 360.065 292.162 360.204 291.987 360.117C273.464 351.086 254.335 351.658 234.95 356.514C218.896 360.537 203.809 367.142 188.995 374.313C174.606 381.28 159.664 385.367 143.604 384.726C128.4 384.119 113.977 380.283 100.176 373.958C99.879 373.823 99.6228 373.59 99.3491 373.404C99.4015 373.299 99.4481 373.188 99.5005 373.083H99.4831Z" fill="#EBF8F5"/>
<path d="M326.174 347.53C327.392 341.105 329.109 334.733 329.744 328.256C333.273 292.529 311.396 252.815 269.551 244.332C248.088 239.983 227.206 242.228 207.891 253.153C188.92 263.886 177.85 280.753 172.493 301.543C168.731 316.153 168.417 330.879 172.272 345.577C172.365 345.932 172.347 346.317 171.94 346.807C171.357 344.696 170.694 342.598 170.21 340.464C169.721 338.295 169.284 336.097 169.028 333.888C166.518 312.223 170.379 291.905 182.474 273.564C194.277 255.672 211.228 245.382 232.057 241.411C249.951 238.001 267.653 238.747 284.522 246.14C308.903 256.826 323.513 275.832 329.523 301.502C333.028 316.473 332.26 331.352 326.687 345.833C326.466 346.411 326.163 346.964 325.901 347.524C325.988 347.524 326.081 347.524 326.169 347.53H326.174Z" fill="#EBF8F5"/>
<g clip-path="url(#clip3_520_1071)">
<path d="M292.95 342.916C292.781 344.138 292.814 345.411 292.437 346.588C292.355 346.845 292.241 347.113 292.015 347.261C291.723 347.452 291.319 347.384 291.039 347.179C290.759 346.975 290.579 346.661 290.435 346.346C288.665 342.46 291.071 337.536 289.055 333.77C287.501 330.867 283.809 329.665 282.101 326.849C282.047 326.759 281.994 326.667 281.977 326.563C281.93 326.271 282.206 326.005 282.497 325.953C282.788 325.902 283.084 326.003 283.361 326.108C284.211 326.43 285.043 326.798 285.854 327.207C287.124 327.849 288.351 328.597 289.696 329.058C291.236 329.587 292.82 329.513 294.413 329.348C297.103 329.066 299.113 327.776 301.3 326.32C301.818 325.974 302.36 325.619 302.977 325.52C303.593 325.421 304.308 325.652 304.578 326.215C304.772 326.247 304.965 326.28 305.157 326.311C306.029 326.456 307.341 328.687 307.962 329.327C308.934 330.33 310.061 331.255 311.446 331.597C311.869 331.7 312.304 331.748 312.733 331.821C313.1 331.885 313.462 331.968 313.823 332.055C316.474 332.691 318.976 333.775 320.895 335.766C321.434 336.326 321.947 337.14 321.59 337.831C320.972 337.973 320.3 337.868 319.757 337.543C319.498 337.389 319.271 337.191 319.029 337.011C318.63 336.714 318.19 336.473 317.725 336.293C317.292 336.126 316.72 336.047 316.427 336.408C316.251 336.626 316.243 336.931 316.243 337.212C316.246 338.303 316.248 339.392 316.211 340.483C316.163 341.889 316.048 343.292 315.868 344.687C315.785 345.34 315.683 346.002 315.404 346.599C315.271 346.884 315.088 347.161 314.812 347.311C314.537 347.461 314.153 347.449 313.947 347.212C313.854 347.107 313.806 346.971 313.762 346.838C313.495 346.011 313.355 345.145 313.349 344.277C313.343 343.382 313.434 342.359 312.807 341.72C312.11 341.606 311.585 342.344 311.361 343.012C311.049 343.932 310.942 344.922 311.052 345.888C311.107 346.363 311.183 346.921 310.834 347.247C310.527 347.535 310.006 347.475 309.679 347.209C308.508 346.259 308.816 343.512 308.858 342.192C308.919 340.23 309.126 338.249 308.767 336.304C308.504 334.878 307.931 333.521 307.114 332.324C306.738 331.773 306.373 331.233 306.023 330.664C305.738 330.2 305.222 328.857 304.759 328.605C304.655 328.548 304.552 328.492 304.448 328.435C304.446 327.873 304.443 327.312 304.442 326.75C302.85 328.407 301.228 330.033 299.715 331.765C299.412 332.114 299.108 332.468 298.879 332.87C298.532 333.476 298.364 334.168 298.22 334.853C297.973 336.018 297.781 337.223 297.98 338.397C298.1 339.107 298.426 339.712 298.478 340.427C298.528 341.089 298.435 341.78 298.362 342.436C298.251 343.44 298.032 344.434 297.936 345.438C297.884 345.981 297.819 346.559 297.478 346.986C297.137 347.413 296.417 347.583 296.049 347.179C295.853 346.966 295.807 346.66 295.779 346.372C295.616 344.738 295.714 342.998 294.904 341.57C294.628 341.084 293.987 340.622 293.568 340.99C293.455 341.089 293.39 341.231 293.334 341.371C293.137 341.867 293.027 342.385 292.955 342.913L292.95 342.916Z" fill="#EBF8F5"/>
<path d="M279.569 327.62C280.066 327.016 280.62 326.512 281.375 326.395C281.955 327.532 281.221 328.874 280.492 329.923C280.01 330.616 279.518 331.303 279.073 332.019C278.519 332.913 278.039 333.852 277.639 334.824C276.884 336.659 276.868 338.727 276.93 340.679C276.963 341.692 277.034 342.703 277.08 343.714C277.101 344.175 277.192 344.709 277.128 345.165C277.07 345.591 276.813 345.843 276.717 346.248C276.678 346.412 276.717 346.586 276.7 346.754C276.672 347.033 276.478 347.288 276.218 347.388C275.091 347.828 274.803 346.248 274.88 345.518C274.94 344.941 275.074 344.352 274.922 343.792C274.885 343.654 274.83 343.521 274.776 343.389C274.713 343.235 274.649 343.079 274.586 342.924C274.412 342.502 274.226 342.061 273.872 341.771C273.75 341.671 273.593 341.589 273.437 341.617C273.316 341.638 273.215 341.72 273.136 341.815C272.878 342.121 272.806 342.537 272.745 342.933C272.574 344.021 272.404 345.11 272.326 346.207C272.303 346.528 272.285 346.864 272.124 347.142C271.963 347.421 271.603 347.617 271.309 347.484C271.14 347.409 271.03 347.246 270.936 347.088C270.615 346.55 270.378 345.964 270.234 345.354C270.127 344.901 270.072 344.437 270.018 343.974C269.988 343.727 269.959 343.478 269.929 343.23C269.904 343.02 269.88 342.809 269.864 342.597C269.846 342.353 269.841 342.107 269.836 341.861C269.812 340.664 270.577 335.486 268.398 336.266C267.754 336.496 267.154 336.85 266.642 337.302C266.532 337.4 266.423 337.502 266.287 337.554C266.165 337.601 266.03 337.602 265.903 337.632C265.541 337.714 265.222 338.012 264.853 337.961C264.46 337.905 264.231 337.446 264.289 337.053C264.348 336.66 264.612 336.334 264.879 336.041C265.575 335.283 266.372 334.62 267.235 334.06C267.925 333.611 268.661 333.227 269.424 332.917C269.883 332.731 270.35 332.57 270.818 332.411C270.905 332.381 270.993 332.35 271.081 332.321C272.449 331.852 273.88 331.954 275.187 331.402C276.066 331.029 276.888 330.522 277.613 329.902C277.907 329.649 278.186 329.38 278.437 329.086C278.826 328.63 279.182 328.095 279.572 327.621L279.569 327.62Z" fill="#EBF8F5"/>
<path d="M292.903 328.386C292.792 328.264 292.676 328.15 292.519 328.109C292.394 328.077 292.231 328.08 292.171 327.966C292.141 327.908 292.149 327.839 292.147 327.774C292.137 327.316 291.468 326.92 291.35 326.389C291.232 325.859 291.265 325.178 291.455 324.661C291.929 323.374 294.024 322.54 295.088 323.534C295.924 324.315 296.322 325.535 296.106 326.658C296.087 326.753 296.064 326.85 296.006 326.929C295.946 327.011 295.853 327.067 295.804 327.155C295.756 327.239 295.752 327.338 295.735 327.432C295.602 328.187 294.582 328.523 293.956 328.716C293.766 328.775 293.56 328.833 293.369 328.773C293.177 328.711 293.044 328.543 292.905 328.389L292.903 328.386Z" fill="#EBF8F5"/>
<path d="M274.122 326.347C274.229 326.583 274.498 326.715 274.706 326.885C275.331 327.4 275.401 328.341 275.228 329.131C275.166 329.417 275.077 329.697 274.968 329.966C274.909 330.11 274.841 330.254 274.734 330.367C274.576 330.533 274.34 330.622 274.224 330.819C274.192 330.875 274.167 330.941 274.114 330.978C274.063 331.015 273.995 331.017 273.932 331.017C273.603 331.02 273.275 331.023 272.947 331.028C272.8 331.028 272.648 331.029 272.513 330.972C272.375 330.913 272.268 330.8 272.166 330.689C271.929 330.432 271.683 330.16 271.596 329.821C271.581 329.761 271.57 329.696 271.528 329.649C271.468 329.581 271.363 329.57 271.302 329.502C271.248 329.442 271.245 329.354 271.245 329.272C271.243 327.782 271.226 327.329 272.493 326.486C272.631 326.41 272.775 326.345 272.928 326.302C273.307 326.196 273.709 326.24 274.1 326.283C274.107 326.305 274.114 326.326 274.124 326.347H274.122Z" fill="#EBF8F5"/>
<path d="M311.971 330.83C311.303 330.502 310.862 329.812 310.749 328.978C310.636 328.144 310.925 327.289 311.506 326.696C311.704 326.574 311.84 326.526 311.864 326.279C311.879 326.197 312.666 326.226 312.746 326.225C313.349 326.214 313.936 326.658 314.346 327.103C314.69 327.478 314.803 327.983 314.814 328.479C314.818 328.703 314.826 328.977 314.764 329.193C314.693 329.445 314.518 329.495 314.45 329.716C314.416 329.826 314.416 329.947 314.368 330.05C314.331 330.128 314.267 330.191 314.205 330.25C313.864 330.572 313.432 331.028 312.935 331.037C312.579 331.043 312.254 330.969 311.972 330.83H311.971Z" fill="#EBF8F5"/>
</g>
</g>
<path d="M45.0848 298.938C40.5005 298.938 37.0245 297.679 34.6568 295.16C32.3395 292.641 31.1808 289.467 31.1808 285.639C31.1808 282.918 31.735 280.198 32.8432 277.478C34.0019 274.707 35.6392 272.289 37.755 270.224C39.8708 268.158 42.3393 266.773 45.1604 266.067C43.5987 264.959 42.44 263.624 41.6844 262.062C40.9287 260.45 40.5509 258.763 40.5509 257C40.5509 254.38 41.2562 251.811 42.6667 249.292C44.1277 246.773 46.1175 244.733 48.6364 243.171C51.2056 241.559 54.0267 240.753 57.0997 240.753C60.2734 240.753 62.8678 241.584 64.8829 243.247C66.898 244.909 67.9055 247.226 67.9055 250.199C67.9055 252.415 67.3514 254.279 66.2431 255.791C65.1348 257.302 63.825 258.057 62.3137 258.057C60.9535 258.057 59.7697 257.377 58.7621 256.017C59.6689 255.715 60.4498 254.884 61.1047 253.524C61.7596 252.163 62.087 250.803 62.087 249.443C62.087 247.982 61.684 246.924 60.878 246.269C60.0719 245.564 59.0896 245.211 57.9309 245.211C56.47 245.211 55.135 245.74 53.926 246.798C52.7673 247.806 51.8605 249.141 51.2056 250.803C50.5507 252.415 50.2233 254.103 50.2233 255.866C50.2233 258.284 50.853 260.425 52.1124 262.289C53.3718 264.103 55.2861 265.337 57.8553 265.992C55.2861 266.546 52.9688 267.805 50.9033 269.77C48.8379 271.735 47.2258 274.027 46.0672 276.647C44.9085 279.216 44.3292 281.684 44.3292 284.052C44.3292 286.319 44.9085 288.158 46.0672 289.568C47.2762 290.979 49.0898 291.684 51.5079 291.684C54.0267 291.684 56.6463 291.004 59.3667 289.644C62.1374 288.233 64.1776 286.344 65.4874 283.976L67.2254 284.732C65.2607 289.064 62.2381 292.515 58.1576 295.084C54.0771 297.654 49.7195 298.938 45.0848 298.938ZM92.1608 298.107C87.1735 298.107 83.3952 296.898 80.826 294.48C78.3072 292.011 77.0477 288.384 77.0477 283.599C77.0477 281.231 77.4004 278.586 78.1057 275.664L85.8133 244.985C81.4809 246.143 78.1057 248.209 75.6876 251.181C73.2695 254.103 72.0604 257.327 72.0604 260.853C72.0604 263.322 72.7153 265.715 74.0251 268.032C71.1536 268.032 68.9119 267.327 67.2998 265.916C65.7381 264.506 64.9573 262.516 64.9573 259.947C64.9573 256.672 66.2671 253.549 68.8867 250.577C71.5567 247.554 75.083 245.136 79.4658 243.322C83.8486 241.509 88.4833 240.602 93.3698 240.602C95.0826 240.602 96.4932 240.728 97.6015 240.98L88.3825 275.891C87.5261 279.065 87.0979 281.785 87.0979 284.052C87.0979 288.838 89.0626 291.231 92.992 291.231C98.6342 291.231 102.538 286.042 104.705 275.664L112.261 240.753H122.916L115.586 275.664C113.974 283.07 111.178 288.661 107.198 292.44C103.269 296.218 98.2564 298.107 92.1608 298.107Z" fill="#EBF8F5"/>
<path d="M79.8128 315.308H78.906C74.4224 315.308 70.9213 316.441 68.4024 318.708C65.9339 320.925 64.6997 324.879 64.6997 330.572C64.6997 332.436 64.876 333.746 65.2287 334.501C65.5813 335.207 65.7576 335.61 65.7576 335.71C63.0373 335.71 60.997 335.156 59.6368 334.048C58.327 332.889 57.6721 331 57.6721 328.381C57.6721 324.804 58.5537 321.555 60.3169 318.633C62.0801 315.66 64.876 313.268 68.7047 311.454C72.5837 309.64 77.4954 308.734 83.4399 308.734C86.7648 308.734 90.3415 309.036 94.1702 309.64C97.3943 310.195 100.266 310.472 102.785 310.472C106.009 310.472 108.931 309.943 111.55 308.885C111.449 312.159 110.618 314.577 109.057 316.139C107.495 317.701 105.178 318.482 102.105 318.482C100.492 318.482 98.8804 318.356 97.2683 318.104C95.6563 317.852 93.3641 317.424 90.3919 316.819L79.9639 365.332H69.0825L79.8128 315.308ZM98.7377 327.549H109.619L108.637 332.234C110.35 330.723 111.886 329.564 113.246 328.758C114.657 327.952 116.168 327.549 117.78 327.549C119.392 327.549 120.652 328.104 121.558 329.212C122.516 330.32 122.994 331.655 122.994 333.217C122.994 334.678 122.516 335.962 121.558 337.071C120.601 338.179 119.266 338.733 117.553 338.733C116.445 338.733 115.69 338.481 115.287 337.977C114.934 337.423 114.657 336.642 114.455 335.635C114.304 334.98 114.153 334.501 114.002 334.199C113.851 333.897 113.574 333.746 113.171 333.746C112.113 333.746 111.206 333.972 110.45 334.426C109.745 334.829 108.813 335.559 107.654 336.617L101.609 365.332H90.7278L98.7377 327.549ZM134.629 323.469C132.967 323.469 131.556 322.89 130.398 321.731C129.239 320.572 128.66 319.162 128.66 317.499C128.66 315.837 129.239 314.426 130.398 313.268C131.556 312.059 132.967 311.454 134.629 311.454C136.292 311.454 137.702 312.059 138.861 313.268C140.07 314.426 140.675 315.837 140.675 317.499C140.675 319.162 140.07 320.572 138.861 321.731C137.702 322.89 136.292 323.469 134.629 323.469ZM129.491 365.785C127.073 365.785 125.108 365.03 123.597 363.518C122.136 362.007 121.406 359.74 121.406 356.718C121.406 355.458 121.607 353.821 122.01 351.806L127.148 327.549H138.03L132.589 353.242C132.388 353.997 132.287 354.803 132.287 355.66C132.287 356.667 132.514 357.398 132.967 357.851C133.471 358.254 134.277 358.456 135.385 358.456C136.846 358.456 138.206 357.851 139.466 356.642C140.725 355.383 141.632 353.771 142.186 351.806H145.36C143.496 357.247 141.103 360.949 138.181 362.914C135.259 364.828 132.362 365.785 129.491 365.785ZM152.206 365.785C148.78 365.785 146.161 364.954 144.347 363.292C142.534 361.579 141.627 359.186 141.627 356.113C141.627 354.602 141.803 353.166 142.156 351.806L150.241 313.948L161.425 312.436L157.798 329.439C159.208 328.582 160.367 328.028 161.274 327.776C162.181 327.474 163.087 327.323 163.994 327.323C169.939 327.323 172.911 331.63 172.911 340.244C172.911 343.72 172.231 347.448 170.871 351.428C169.561 355.357 167.344 358.733 164.221 361.554C161.148 364.375 157.143 365.785 152.206 365.785ZM156.438 358.456C157.999 358.456 159.46 357.498 160.82 355.584C162.181 353.619 163.264 351.201 164.07 348.33C164.876 345.408 165.279 342.612 165.279 339.942C165.279 337.927 164.926 336.214 164.221 334.804C163.516 333.393 162.533 332.688 161.274 332.688C160.518 332.688 159.662 332.814 158.705 333.066C157.798 333.267 157.168 333.595 156.816 334.048L152.659 353.242C152.508 353.846 152.433 354.425 152.433 354.98C152.433 357.297 153.768 358.456 156.438 358.456ZM186.387 365.785C182.709 365.785 179.838 364.828 177.772 362.914C175.707 360.949 174.674 357.901 174.674 353.771C174.674 350.295 175.354 346.466 176.715 342.285C178.075 338.103 180.291 334.501 183.364 331.479C186.437 328.406 190.342 326.869 195.077 326.869C200.618 326.869 203.389 329.287 203.389 334.124C203.389 336.945 202.583 339.539 200.971 341.907C199.359 344.275 197.218 346.189 194.548 347.65C191.878 349.06 189.032 349.866 186.009 350.068C185.908 351.176 185.858 351.932 185.858 352.335C185.858 356.516 187.42 358.607 190.543 358.607C191.954 358.607 193.465 358.229 195.077 357.473C196.689 356.718 198.15 355.76 199.46 354.602C198.1 362.058 193.742 365.785 186.387 365.785ZM186.538 346.441C188.452 346.39 190.241 345.761 191.903 344.552C193.616 343.343 194.976 341.806 195.984 339.942C197.042 338.028 197.571 336.038 197.571 333.972C197.571 331.907 196.941 330.874 195.681 330.874C193.918 330.874 192.155 332.486 190.392 335.71C188.679 338.884 187.394 342.461 186.538 346.441Z" fill="#EBF8F5"/>
<g clip-path="url(#clip4_520_1071)">
<path d="M237.426 334.372C235.216 340.538 233.045 346.598 230.862 352.683C228.387 350.122 224.574 351.507 224.25 354.965C221.958 354.661 220.802 352.818 221.578 350.633C223.535 345.134 225.507 339.642 227.489 334.154C228.164 332.288 229.706 331.565 231.558 332.225C233.482 332.911 235.397 333.627 237.426 334.37L237.426 334.372Z" fill="#EBF8F5"/>
<path d="M228.537 357.454C227.174 357.767 225.875 356.965 225.56 355.618C225.249 354.293 226.082 352.947 227.406 352.633C228.751 352.315 230.038 353.121 230.37 354.49C230.7 355.852 229.903 357.141 228.537 357.454Z" fill="#EBF8F5"/>
<path d="M241.401 319.152C241.822 319.308 242.213 319.454 242.814 319.678C242.444 320.281 242.113 320.805 241.803 321.341C241.671 321.568 241.569 321.816 241.48 322.065C240.268 325.45 239.058 328.836 237.848 332.221C237.785 332.396 237.754 332.604 237.638 332.734C237.528 332.859 237.289 333.002 237.176 332.957C237.049 332.907 236.892 332.627 236.929 332.5C237.128 331.81 237.38 331.137 237.622 330.459C238.654 327.575 239.708 324.699 240.708 321.805C240.941 321.132 240.982 320.393 241.133 319.69C241.169 319.519 241.29 319.366 241.4 319.154L241.401 319.152Z" fill="#EBF8F5"/>
<path d="M224.944 337.668C223.537 341.6 222.152 345.465 220.734 349.423C220.128 348.87 220.036 348.312 220.255 347.693C221.332 344.66 222.412 341.627 223.509 338.6C223.72 338.018 224.123 337.629 224.942 337.667L224.944 337.668Z" fill="#EBF8F5"/>
</g>
<path d="M332.687 21.9968L322.635 14.4579C317.729 10.7778 313.929 5.81919 311.651 0.124428C307.048 -11.382 296.46 -19.3997 284.137 -20.7099L-95.9364 -61.12C-136.999 -65.4858 -172.789 -33.2993 -172.789 7.99422V610.906C-172.789 649.292 -141.671 680.409 -103.285 680.409H404.773C425.434 680.409 444.321 668.736 453.561 650.257L470.008 611.881L490.598 569.49C492.401 565.778 493.869 561.913 494.986 557.941L503.047 529.283C504.769 523.159 505.642 516.827 505.642 510.465V481.677V439.184C505.642 432.822 504.769 426.49 503.047 420.366L495.903 394.967C494.181 388.843 493.307 382.511 493.307 376.15V353.664C493.307 347.66 494.085 341.682 495.621 335.878L503.328 306.763C504.865 300.96 505.642 294.981 505.642 288.978V265.947C505.642 259.944 504.865 253.966 503.328 248.162L494.728 215.673C493.782 212.1 492.553 208.608 491.052 205.23L483.019 187.156C478.961 178.026 472.982 169.878 465.491 163.267L461.78 159.994C456.334 155.188 450.169 151.266 443.508 148.37L432.091 143.406C425.43 140.51 419.264 136.588 413.818 131.783L404.945 123.954C400.822 120.315 397.145 116.2 393.991 111.695L379.55 91.0654L360.362 56.8012L349.26 39.721C344.818 32.8869 339.208 26.8874 332.687 21.9968Z" fill="white" stroke="white" stroke-width="0.695038"/>
<path d="M245.416 10.3385L240.29 4.96865C238.112 2.68595 236.442 -0.0331688 235.392 -3.00902C232.328 -11.6889 224.248 -17.5955 215.048 -17.8794L-105.717 -27.7779C-145.727 -29.0125 -178.508 3.71814 -177.335 43.7303L-161.078 598.071C-159.96 636.218 -128.293 666.327 -90.138 665.522L401.582 655.145C417.238 654.815 430.929 644.511 435.581 629.559L447.059 599.429C448.306 596.156 449.798 592.982 451.523 589.934L465.621 565.029L474.243 546.216C476.645 540.977 478.385 535.459 479.424 529.791L481.923 516.159C483.284 508.736 483.427 501.14 482.346 493.67L477.859 462.671L468.959 421.506L466.714 405.42C465.988 400.213 465.854 394.942 466.316 389.706L468.959 359.757V342.573C468.959 334.799 470.263 327.081 472.816 319.739L477.859 305.241L481.491 292.036C483.142 286.032 483.978 279.833 483.978 273.606V270.431C483.978 265.099 483.365 259.784 482.15 254.592L479.275 242.308C478.333 238.284 477.034 234.353 475.394 230.56L468.959 215.678L459.735 198.649C456.263 192.24 451.805 186.417 446.524 181.393L436.895 172.234C433.432 168.941 429.639 166.013 425.576 163.497L401.173 148.391C398.156 146.523 395 144.889 391.734 143.503L371.581 134.954C363.874 131.684 356.821 127.049 350.762 121.272L339.738 110.761C337.253 108.391 334.946 105.84 332.838 103.129L324.323 92.1811L313.224 76.6435C311.357 74.029 309.77 71.2254 308.488 68.2789C306.088 62.7579 302.623 57.7639 298.292 53.5822L288.72 44.34L266.468 27.095L252.433 16.5687C249.927 14.6888 247.58 12.6049 245.416 10.3385Z" fill="url(#paint2_linear_520_1071)"/>
<path d="M133.706 -7.95034L124.03 -18.5932C122.303 -20.4938 120.844 -22.6225 119.695 -24.9198C115.125 -34.0589 105.949 -39.9923 95.74 -40.4102L-127.87 -49.5638C-167.338 -51.1795 -200.217 -19.6193 -200.217 19.8819V619.942C-200.217 658.328 -169.099 689.446 -130.713 689.446H282.662C308.431 689.446 331.13 672.497 338.45 647.791C339.962 642.69 342.165 637.82 345 633.318L367.834 597.052C370.468 592.87 372.648 588.418 374.337 583.772L382.231 562.063C385 554.449 386.416 546.411 386.416 538.31V515.803C386.416 509.756 385.627 503.736 384.069 497.894L374.143 460.67C372.585 454.828 371.796 448.807 371.796 442.761V391.561V355.767C371.796 350.408 372.416 345.066 373.643 339.848L384.568 293.417C385.796 288.2 386.416 282.858 386.416 277.498V256.285C386.416 245.495 383.904 234.853 379.078 225.202L364.043 195.132C361.907 190.86 359.336 186.819 356.371 183.074L337.72 159.515C330.114 149.907 320.103 142.481 308.701 137.989L271.359 123.279C267.66 121.821 264.092 120.049 260.696 117.982L235.918 102.9C227.9 98.0194 220.954 91.5658 215.499 83.9279L205.492 69.9182L190.125 41.548C184.618 31.3819 176.662 22.7501 166.978 16.4344L147.167 3.51411C142.21 0.281311 137.686 -3.57134 133.706 -7.95034Z" fill="url(#paint3_linear_520_1071)"/>
<ellipse cx="176.57" cy="14.0682" rx="8.6744" ry="2.79916" transform="rotate(31.5075 176.57 14.0682)" fill="#FEFFFF"/>
<ellipse cx="419.911" cy="556.574" rx="14.3951" ry="6.60916" transform="rotate(136.627 419.911 556.574)" fill="#FEFFFF"/>
<ellipse cx="407.706" cy="542.735" rx="5.75614" ry="2.6428" transform="rotate(136.627 407.706 542.735)" fill="#FEFFFF"/>
<g clip-path="url(#clip5_520_1071)">
<path d="M94.8986 374.921C98.9572 376.378 102.969 377.976 107.08 379.276C131.013 386.837 154.672 387.269 177.918 376.507C188.632 371.545 199.282 366.386 210.235 361.996C218.452 358.702 227.099 356.492 234.855 354.026C234.96 354.038 234.215 353.944 233.359 353.839C233.324 353.402 233.231 353.029 233.283 352.668C235.036 340.669 237.365 328.706 236.503 316.486C235.851 307.222 233.557 298.332 229.644 289.89C229.376 289.307 228.997 288.77 228.299 287.575V300.419C224.77 298.314 221.713 295.737 221.183 291.102C220.909 291.05 220.641 290.992 220.368 290.939C219.11 296.489 217.852 302.045 216.647 307.386C210.847 303.287 211.656 292.21 219.11 283.453C215.744 284.083 213.135 285.57 211.843 288.321C210.637 290.887 210.218 293.825 209.473 296.513C206.643 292.064 206.561 285.599 209.397 281.535C212.407 277.215 216.583 276.755 221.293 278.125C221.381 277.816 221.462 277.512 221.55 277.204C218.76 276.177 215.971 275.157 213.263 274.16C216.187 270.237 220.117 270.143 225.259 274.114C228.491 268.633 231.851 266.674 236.952 267.625C235.473 268.703 234.087 269.485 232.998 270.569C231.979 271.589 231.268 272.924 230.68 274.405C235.583 271.304 240.597 269.193 246.338 270.831C249.547 271.752 252.144 273.729 253.908 276.842C244.549 275.346 238.776 275.243 236.591 276.533C239.153 277.069 242.029 277.273 244.562 278.311C247.526 279.524 248.353 282.433 248.65 285.692C243.904 284.124 239.397 282.643 234.89 281.156C234.733 281.378 234.57 281.594 234.413 281.815C239.677 285.884 241.063 291.353 240.667 298.378C238.046 295.615 235.956 293.405 233.865 291.196C233.597 291.236 233.335 291.277 233.068 291.324C244.329 310.872 242.891 331.639 239.485 353.233C248.359 338.279 253.932 322.579 260.069 307.059C258.334 308.896 256.598 310.738 254.758 312.691C253.442 308.546 255.288 303.509 258.899 299.976C257.152 300.419 255.381 300.774 253.664 301.322C251.923 301.876 250.234 302.611 248.516 303.275C248.039 298.454 251.049 296.309 258.386 296.472C253.495 293.755 248.9 295.201 244.131 296.448C248.027 290.397 253.227 289.849 262.282 293.848C260.797 292.315 259.312 290.782 257.891 289.318C261.385 288.572 263.569 289.773 266.026 293.703C268.099 293.155 270.021 292.327 271.983 292.239C273.241 292.181 274.545 293.207 276.438 294.006C273.561 295.032 271.401 295.801 269.246 296.571C269.299 296.822 269.345 297.066 269.398 297.317C272.984 296.279 276.24 296.571 278.499 299.824C281.102 303.567 280.584 307.479 278.586 311.595C277.963 307.001 276.88 302.797 272.158 301.76C273.316 304.675 274.877 307.73 275.721 310.977C276.612 314.405 275.354 317.565 273.124 320.439C272.146 316.107 271.22 312.032 270.318 308.015C268.25 310.476 266.364 312.72 264.023 315.507V305.736C258.38 321.728 252.918 337.218 247.392 352.877C261.752 351.956 275.518 354.16 288.41 361.821C287.862 361.902 287.577 362.042 287.402 361.955C268.879 352.924 249.751 353.495 230.366 358.352C214.312 362.375 199.224 368.98 184.41 376.151C170.022 383.118 155.08 387.205 139.02 386.563C123.816 385.957 109.392 382.121 95.5915 375.795C95.2945 375.661 95.0383 375.428 94.7646 375.242C94.8171 375.137 94.8636 375.026 94.916 374.921H94.8986Z" fill="#EBF8F5"/>
<path d="M321.591 349.37C322.808 342.945 324.525 336.573 325.16 330.096C328.689 294.369 306.812 254.655 264.967 246.172C243.504 241.823 222.622 244.067 203.307 254.993C184.336 265.726 173.266 282.592 167.909 303.382C164.147 317.992 163.833 332.719 167.688 347.417C167.781 347.772 167.763 348.157 167.356 348.647C166.773 346.536 166.11 344.438 165.626 342.304C165.137 340.135 164.7 337.937 164.444 335.727C161.934 314.063 165.795 293.745 177.89 275.404C189.693 257.512 206.644 247.222 227.473 243.251C245.367 239.841 263.069 240.587 279.938 247.979C304.319 258.666 318.929 277.672 324.939 303.342C328.444 318.313 327.676 333.191 322.103 347.673C321.882 348.25 321.579 348.804 321.317 349.364C321.404 349.364 321.497 349.364 321.585 349.37H321.591Z" fill="#EBF8F5"/>
<g clip-path="url(#clip6_520_1071)">
<path d="M288.364 344.758C288.195 345.98 288.228 347.253 287.851 348.43C287.769 348.687 287.655 348.955 287.429 349.103C287.137 349.293 286.733 349.225 286.453 349.021C286.173 348.817 285.993 348.503 285.849 348.187C284.079 344.301 286.486 339.377 284.469 335.612C282.915 332.708 279.223 331.506 277.515 328.691C277.461 328.601 277.408 328.508 277.391 328.405C277.344 328.112 277.62 327.846 277.911 327.795C278.202 327.744 278.498 327.845 278.775 327.95C279.625 328.272 280.457 328.64 281.268 329.048C282.538 329.69 283.765 330.439 285.11 330.9C286.65 331.429 288.234 331.355 289.827 331.189C292.517 330.908 294.527 329.618 296.714 328.162C297.232 327.815 297.774 327.461 298.391 327.362C299.007 327.263 299.723 327.494 299.992 328.057C300.186 328.089 300.379 328.122 300.571 328.153C301.443 328.298 302.755 330.529 303.376 331.169C304.348 332.172 305.475 333.097 306.86 333.439C307.283 333.542 307.718 333.59 308.147 333.663C308.514 333.726 308.876 333.81 309.237 333.897C311.888 334.532 314.39 335.617 316.309 337.608C316.848 338.168 317.361 338.981 317.004 339.673C316.387 339.815 315.714 339.71 315.171 339.385C314.912 339.23 314.685 339.032 314.443 338.853C314.044 338.556 313.604 338.315 313.139 338.135C312.706 337.968 312.134 337.889 311.842 338.25C311.665 338.468 311.657 338.773 311.657 339.054C311.66 340.145 311.662 341.234 311.625 342.324C311.577 343.731 311.462 345.134 311.282 346.529C311.199 347.182 311.097 347.844 310.818 348.441C310.685 348.726 310.502 349.003 310.226 349.153C309.951 349.303 309.567 349.29 309.361 349.054C309.268 348.948 309.22 348.812 309.176 348.679C308.909 347.853 308.769 346.987 308.763 346.119C308.757 345.223 308.848 344.201 308.221 343.562C307.524 343.447 306.999 344.185 306.775 344.854C306.463 345.774 306.357 346.764 306.467 347.729C306.521 348.204 306.597 348.763 306.248 349.089C305.942 349.377 305.42 349.317 305.093 349.051C303.922 348.101 304.23 345.353 304.272 344.034C304.333 342.072 304.54 340.091 304.181 338.146C303.918 336.72 303.345 335.363 302.529 334.166C302.152 333.615 301.787 333.075 301.437 332.506C301.152 332.042 300.636 330.699 300.173 330.447C300.069 330.39 299.966 330.334 299.862 330.277C299.86 329.715 299.857 329.154 299.856 328.592C298.264 330.249 296.642 331.875 295.13 333.607C294.826 333.955 294.523 334.31 294.293 334.712C293.946 335.318 293.778 336.01 293.634 336.695C293.387 337.86 293.195 339.065 293.394 340.239C293.514 340.949 293.84 341.554 293.892 342.269C293.942 342.931 293.849 343.622 293.776 344.278C293.665 345.282 293.446 346.275 293.35 347.279C293.298 347.822 293.233 348.401 292.892 348.828C292.551 349.255 291.831 349.425 291.463 349.021C291.267 348.808 291.221 348.501 291.193 348.214C291.031 346.58 291.128 344.84 290.318 343.412C290.043 342.926 289.401 342.464 288.982 342.832C288.869 342.931 288.804 343.073 288.748 343.212C288.551 343.709 288.441 344.227 288.369 344.755L288.364 344.758Z" fill="#EBF8F5"/>
<path d="M274.985 329.462C275.483 328.858 276.037 328.354 276.791 328.236C277.372 329.373 276.638 330.716 275.908 331.765C275.427 332.458 274.934 333.145 274.49 333.861C273.936 334.755 273.456 335.694 273.056 336.666C272.3 338.5 272.285 340.569 272.347 342.521C272.379 343.534 272.451 344.544 272.497 345.556C272.517 346.017 272.608 346.551 272.545 347.007C272.486 347.433 272.229 347.685 272.133 348.09C272.094 348.254 272.133 348.427 272.116 348.596C272.088 348.874 271.895 349.13 271.634 349.23C270.507 349.67 270.219 348.09 270.296 347.36C270.357 346.783 270.49 346.193 270.338 345.633C270.301 345.496 270.247 345.363 270.193 345.231C270.129 345.077 270.066 344.92 270.002 344.766C269.829 344.343 269.643 343.902 269.288 343.613C269.166 343.513 269.01 343.431 268.853 343.458C268.732 343.48 268.632 343.562 268.553 343.656C268.294 343.963 268.223 344.379 268.161 344.775C267.991 345.862 267.82 346.952 267.743 348.048C267.72 348.37 267.701 348.706 267.54 348.984C267.379 349.263 267.02 349.459 266.726 349.326C266.557 349.25 266.447 349.088 266.352 348.93C266.032 348.392 265.795 347.805 265.651 347.196C265.544 346.743 265.488 346.279 265.434 345.816C265.405 345.569 265.375 345.319 265.346 345.072C265.321 344.862 265.296 344.651 265.281 344.439C265.262 344.195 265.257 343.949 265.253 343.703C265.228 342.506 265.993 337.328 263.814 338.108C263.17 338.338 262.571 338.692 262.058 339.144C261.948 339.241 261.84 339.344 261.704 339.396C261.581 339.443 261.447 339.444 261.32 339.473C260.957 339.555 260.638 339.854 260.27 339.803C259.876 339.747 259.647 339.288 259.706 338.895C259.765 338.502 260.028 338.176 260.296 337.883C260.991 337.125 261.789 336.462 262.651 335.902C263.342 335.453 264.077 335.069 264.841 334.758C265.299 334.573 265.767 334.412 266.235 334.252C266.321 334.223 266.41 334.192 266.498 334.163C267.865 333.694 269.296 333.796 270.603 333.244C271.483 332.871 272.305 332.364 273.03 331.743C273.324 331.491 273.603 331.222 273.854 330.928C274.242 330.472 274.598 329.936 274.989 329.463L274.985 329.462Z" fill="#EBF8F5"/>
<path d="M288.318 330.23C288.207 330.108 288.091 329.993 287.934 329.953C287.809 329.921 287.646 329.924 287.586 329.809C287.556 329.752 287.564 329.683 287.562 329.618C287.552 329.16 286.883 328.764 286.765 328.233C286.647 327.702 286.68 327.022 286.87 326.505C287.344 325.218 289.439 324.384 290.503 325.377C291.339 326.159 291.737 327.379 291.521 328.502C291.502 328.597 291.479 328.694 291.421 328.773C291.361 328.855 291.268 328.911 291.219 328.999C291.171 329.082 291.168 329.181 291.15 329.276C291.017 330.031 289.997 330.366 289.371 330.56C289.181 330.618 288.975 330.677 288.784 330.617C288.592 330.555 288.459 330.386 288.32 330.233L288.318 330.23Z" fill="#EBF8F5"/>
<path d="M269.537 328.19C269.643 328.427 269.913 328.558 270.12 328.729C270.746 329.244 270.816 330.184 270.642 330.975C270.58 331.261 270.492 331.541 270.382 331.81C270.323 331.954 270.255 332.098 270.148 332.211C269.99 332.376 269.755 332.466 269.639 332.663C269.606 332.718 269.581 332.785 269.529 332.822C269.478 332.859 269.41 332.861 269.346 332.861C269.018 332.864 268.69 332.867 268.361 332.871C268.214 332.871 268.062 332.873 267.928 332.816C267.79 332.757 267.683 332.644 267.581 332.533C267.344 332.276 267.098 332.004 267.011 331.665C266.995 331.604 266.985 331.539 266.943 331.493C266.882 331.425 266.777 331.414 266.717 331.346C266.662 331.286 266.659 331.198 266.659 331.116C266.658 329.626 266.641 329.173 267.907 328.33C268.045 328.254 268.189 328.189 268.343 328.145C268.722 328.04 269.123 328.084 269.515 328.127C269.521 328.149 269.529 328.17 269.538 328.19H269.537Z" fill="#EBF8F5"/>
<path d="M307.386 332.672C306.719 332.344 306.277 331.654 306.164 330.82C306.051 329.986 306.341 329.131 306.922 328.538C307.12 328.416 307.256 328.368 307.279 328.121C307.295 328.039 308.081 328.068 308.162 328.066C308.764 328.056 309.351 328.5 309.762 328.945C310.105 329.319 310.218 329.825 310.229 330.32C310.234 330.545 310.242 330.818 310.18 331.035C310.108 331.287 309.933 331.337 309.865 331.558C309.831 331.668 309.831 331.788 309.783 331.892C309.746 331.969 309.683 332.033 309.621 332.092C309.28 332.413 308.848 332.87 308.351 332.879C307.995 332.885 307.669 332.811 307.388 332.672H307.386Z" fill="#EBF8F5"/>
</g>
</g>
<path d="M40.5023 300.778C35.918 300.778 32.442 299.519 30.0743 297C27.757 294.481 26.5983 291.307 26.5983 287.479C26.5983 284.758 27.1524 282.038 28.2607 279.318C29.4194 276.547 31.0566 274.129 33.1725 272.063C35.2883 269.998 37.7568 268.613 40.5779 267.907C39.0162 266.799 37.8575 265.464 37.1019 263.902C36.3462 262.29 35.9684 260.603 35.9684 258.839C35.9684 256.22 36.6737 253.651 38.0842 251.132C39.5451 248.613 41.535 246.573 44.0539 245.011C46.6231 243.399 49.4442 242.593 52.5172 242.593C55.6909 242.593 58.2853 243.424 60.3004 245.087C62.3155 246.749 63.323 249.066 63.323 252.039C63.323 254.255 62.7689 256.119 61.6606 257.63C60.5523 259.142 59.2425 259.897 57.7312 259.897C56.371 259.897 55.1871 259.217 54.1796 257.857C55.0864 257.555 55.8672 256.724 56.5221 255.363C57.177 254.003 57.5045 252.643 57.5045 251.283C57.5045 249.822 57.1015 248.764 56.2954 248.109C55.4894 247.404 54.5071 247.051 53.3484 247.051C51.8875 247.051 50.5525 247.58 49.3434 248.638C48.1848 249.646 47.278 250.981 46.6231 252.643C45.9682 254.255 45.6407 255.943 45.6407 257.706C45.6407 260.124 46.2704 262.265 47.5299 264.129C48.7893 265.943 50.7036 267.177 53.2728 267.832C50.7036 268.386 48.3863 269.645 46.3208 271.61C44.2554 273.575 42.6433 275.867 41.4846 278.486C40.326 281.056 39.7466 283.524 39.7466 285.892C39.7466 288.159 40.326 289.998 41.4846 291.408C42.6937 292.819 44.5073 293.524 46.9253 293.524C49.4442 293.524 52.0638 292.844 54.7841 291.484C57.5549 290.073 59.5951 288.184 60.9049 285.816L62.6429 286.572C60.6782 290.904 57.6556 294.355 53.5751 296.924C49.4946 299.494 45.137 300.778 40.5023 300.778ZM87.5783 299.947C82.591 299.947 78.8127 298.738 76.2435 296.32C73.7246 293.851 72.4652 290.224 72.4652 285.438C72.4652 283.071 72.8179 280.426 73.5231 277.504L81.2308 246.825C76.8984 247.983 73.5231 250.049 71.105 253.021C68.687 255.943 67.4779 259.167 67.4779 262.693C67.4779 265.162 68.1328 267.555 69.4426 269.872C66.5711 269.872 64.3294 269.167 62.7173 267.756C61.1556 266.346 60.3748 264.356 60.3748 261.786C60.3748 258.512 61.6846 255.389 64.3042 252.416C66.9741 249.394 70.5005 246.976 74.8833 245.162C79.2661 243.349 83.9008 242.442 88.7873 242.442C90.5001 242.442 91.9107 242.568 93.019 242.82L83.8 277.731C82.9436 280.904 82.5154 283.625 82.5154 285.892C82.5154 290.678 84.4801 293.07 88.4095 293.07C94.0517 293.07 97.9559 287.882 100.122 277.504L107.679 242.593H118.333L111.004 277.504C109.391 284.909 106.596 290.501 102.616 294.28C98.6864 298.058 93.6739 299.947 87.5783 299.947Z" fill="#EBF8F5"/>
<path d="M75.2312 317.15H74.3244C69.8409 317.15 66.3397 318.283 63.8209 320.55C61.3524 322.767 60.1182 326.721 60.1182 332.414C60.1182 334.278 60.2945 335.588 60.6471 336.343C60.9998 337.048 61.1761 337.451 61.1761 337.552C58.4557 337.552 56.4155 336.998 55.0553 335.89C53.7455 334.731 53.0906 332.842 53.0906 330.222C53.0906 326.646 53.9722 323.396 55.7354 320.474C57.4986 317.502 60.2945 315.109 64.1231 313.296C68.0021 311.482 72.9139 310.575 78.8584 310.575C82.1832 310.575 85.76 310.878 89.5886 311.482C92.8127 312.036 95.6842 312.313 98.2031 312.313C101.427 312.313 104.349 311.784 106.969 310.727C106.868 314.001 106.037 316.419 104.475 317.981C102.913 319.543 100.596 320.323 97.523 320.323C95.9109 320.323 94.2989 320.197 92.6868 319.946C91.0747 319.694 88.7826 319.265 85.8104 318.661L75.3824 367.174H64.501L75.2312 317.15ZM94.1562 329.391H105.038L104.055 334.076C105.768 332.565 107.305 331.406 108.665 330.6C110.075 329.794 111.587 329.391 113.199 329.391C114.811 329.391 116.07 329.945 116.977 331.054C117.934 332.162 118.413 333.497 118.413 335.059C118.413 336.52 117.934 337.804 116.977 338.912C116.02 340.021 114.685 340.575 112.972 340.575C111.864 340.575 111.108 340.323 110.705 339.819C110.352 339.265 110.075 338.484 109.874 337.477C109.723 336.822 109.571 336.343 109.42 336.041C109.269 335.739 108.992 335.588 108.589 335.588C107.531 335.588 106.624 335.814 105.869 336.268C105.164 336.671 104.232 337.401 103.073 338.459L97.0277 367.174H86.1463L94.1562 329.391ZM130.048 325.311C128.385 325.311 126.975 324.731 125.816 323.573C124.658 322.414 124.078 321.003 124.078 319.341C124.078 317.679 124.658 316.268 125.816 315.109C126.975 313.9 128.385 313.296 130.048 313.296C131.71 313.296 133.121 313.9 134.28 315.109C135.489 316.268 136.093 317.679 136.093 319.341C136.093 321.003 135.489 322.414 134.28 323.573C133.121 324.731 131.71 325.311 130.048 325.311ZM124.909 367.627C122.491 367.627 120.527 366.872 119.015 365.36C117.554 363.849 116.824 361.582 116.824 358.559C116.824 357.3 117.025 355.663 117.429 353.648L122.567 329.391H133.448L128.008 355.083C127.806 355.839 127.705 356.645 127.705 357.501C127.705 358.509 127.932 359.239 128.385 359.693C128.889 360.096 129.695 360.297 130.804 360.297C132.264 360.297 133.625 359.693 134.884 358.484C136.144 357.224 137.05 355.612 137.604 353.648H140.778C138.914 359.088 136.521 362.791 133.599 364.756C130.678 366.67 127.781 367.627 124.909 367.627ZM147.625 367.627C144.199 367.627 141.579 366.796 139.766 365.134C137.952 363.421 137.045 361.028 137.045 357.955C137.045 356.444 137.222 355.008 137.574 353.648L145.66 315.789L156.843 314.278L153.216 331.28C154.627 330.424 155.786 329.87 156.692 329.618C157.599 329.316 158.506 329.165 159.413 329.165C165.357 329.165 168.329 333.472 168.329 342.086C168.329 345.562 167.649 349.29 166.289 353.27C164.979 357.199 162.763 360.574 159.639 363.396C156.566 366.217 152.561 367.627 147.625 367.627ZM151.856 360.297C153.418 360.297 154.879 359.34 156.239 357.426C157.599 355.461 158.682 353.043 159.488 350.172C160.294 347.25 160.697 344.454 160.697 341.784C160.697 339.769 160.345 338.056 159.639 336.645C158.934 335.235 157.952 334.53 156.692 334.53C155.937 334.53 155.08 334.656 154.123 334.907C153.216 335.109 152.587 335.436 152.234 335.89L148.078 355.083C147.927 355.688 147.851 356.267 147.851 356.821C147.851 359.139 149.186 360.297 151.856 360.297ZM181.805 367.627C178.128 367.627 175.256 366.67 173.191 364.756C171.125 362.791 170.093 359.743 170.093 355.612C170.093 352.136 170.773 348.308 172.133 344.126C173.493 339.945 175.71 336.343 178.783 333.321C181.856 330.248 185.76 328.711 190.495 328.711C196.037 328.711 198.808 331.129 198.808 335.965C198.808 338.786 198.002 341.381 196.389 343.749C194.777 346.116 192.636 348.031 189.966 349.492C187.296 350.902 184.45 351.708 181.428 351.91C181.327 353.018 181.276 353.774 181.276 354.177C181.276 358.358 182.838 360.449 185.961 360.449C187.372 360.449 188.883 360.071 190.495 359.315C192.107 358.559 193.568 357.602 194.878 356.444C193.518 363.899 189.16 367.627 181.805 367.627ZM181.957 348.283C183.871 348.232 185.659 347.602 187.322 346.393C189.034 345.184 190.395 343.648 191.402 341.784C192.46 339.87 192.989 337.88 192.989 335.814C192.989 333.749 192.359 332.716 191.1 332.716C189.337 332.716 187.574 334.328 185.81 337.552C184.098 340.726 182.813 344.303 181.957 348.283Z" fill="#EBF8F5"/>
<g clip-path="url(#clip7_520_1071)">
<path d="M232.849 336.212C230.639 342.378 228.468 348.437 226.286 354.523C223.81 351.962 219.997 353.346 219.673 356.804C217.381 356.501 216.225 354.658 217.001 352.473C218.958 346.974 220.931 341.482 222.913 335.994C223.587 334.128 225.129 333.405 226.981 334.065C228.905 334.751 230.82 335.467 232.849 336.21L232.849 336.212Z" fill="#EBF8F5"/>
<path d="M223.961 359.298C222.598 359.611 221.299 358.809 220.984 357.462C220.673 356.137 221.506 354.791 222.83 354.477C224.175 354.159 225.462 354.965 225.794 356.334C226.124 357.696 225.328 358.985 223.961 359.298Z" fill="#EBF8F5"/>
<path d="M236.823 320.994C237.244 321.15 237.635 321.296 238.236 321.52C237.866 322.123 237.534 322.647 237.225 323.183C237.093 323.41 236.991 323.658 236.902 323.907C235.689 327.292 234.48 330.678 233.27 334.062C233.207 334.238 233.176 334.445 233.06 334.575C232.95 334.701 232.711 334.844 232.598 334.799C232.47 334.749 232.314 334.468 232.35 334.342C232.55 333.652 232.802 332.979 233.044 332.301C234.076 329.417 235.13 326.541 236.13 323.646C236.362 322.974 236.404 322.235 236.555 321.531C236.591 321.36 236.711 321.208 236.822 320.996L236.823 320.994Z" fill="#EBF8F5"/>
<path d="M220.366 339.512C218.958 343.444 217.573 347.309 216.156 351.266C215.55 350.713 215.458 350.156 215.677 349.537C216.754 346.503 217.834 343.47 218.931 340.444C219.142 339.862 219.545 339.472 220.364 339.51L220.366 339.512Z" fill="#EBF8F5"/>
</g>
<g clip-path="url(#clip8_520_1071)">
<path d="M865.134 506.076L863.808 501.695L847.659 497.801L836.232 494.714L819.312 490.904L799.84 487.541L782.051 485.587L762.265 484.383L747.038 484.539L720.709 484.845L699.053 486.933L674.795 490.445L644.066 495.123L606.914 503.833L565.394 515.444L523.757 529.333L492.377 540.278L449.228 559.725L412.914 576.951L383.605 593.182L354.785 610.518L330.297 627.364L322.037 633.217L317.682 637.735L315.133 640.901L314.989 644.607L329.689 693.165L332.8 695.562L336.581 696.986L345.892 698.302L363.78 698.486L389.964 697.725L411.324 696.211L451.079 692.958L487.416 687.847L517.933 682.436L553.801 674.772L588.04 665.364L652.485 645.841L686.428 632.846L713.729 621.051L742.175 606.694L770.232 590.539L792.174 574.158L827.608 545.069L849.161 524.81L861.94 510.227L865.134 506.076Z" fill="#AB1A1A"/>
<path d="M425.726 595.584C426.779 595.51 427.836 595.636 428.893 595.762C440.861 597.217 452.707 599.612 464.311 602.883C473.837 605.571 488.121 608.234 495.373 615.462C485.117 630.327 475.517 646.385 461.754 658.359C445.212 672.772 423.859 674.685 402.721 675.069C391.638 675.274 378.351 672.235 371.764 662.317C370.846 660.927 370.262 659.332 369.689 657.773C367.762 652.501 365.785 647.006 366.413 641.426C368.202 625.578 385.99 613.972 398.828 607.711C406.22 604.093 413.653 600.542 421.126 597.058C422.392 596.458 423.7 595.864 425.093 595.664C425.304 595.637 425.515 595.61 425.731 595.602L425.726 595.584Z" fill="#DE8282"/>
</g>
</g>
</g>
<defs>
<linearGradient id="paint0_linear_520_1071" x1="152.712" y1="-39.0918" x2="152.712" y2="657.94" gradientUnits="userSpaceOnUse">
<stop stop-color="#A3D2E2"/>
<stop offset="1" stop-color="#BBDEE4"/>
</linearGradient>
<linearGradient id="paint1_linear_520_1071" x1="198.653" y1="378.573" x2="-371.532" y2="491.879" gradientUnits="userSpaceOnUse">
<stop stop-color="#8AC8D7"/>
<stop offset="1" stop-color="#429FC5"/>
</linearGradient>
<linearGradient id="paint2_linear_520_1071" x1="152.24" y1="-30.0547" x2="152.24" y2="666.977" gradientUnits="userSpaceOnUse">
<stop stop-color="#A3D2E2"/>
<stop offset="1" stop-color="#BBDEE4"/>
</linearGradient>
<linearGradient id="paint3_linear_520_1071" x1="198.182" y1="387.611" x2="-372.003" y2="500.917" gradientUnits="userSpaceOnUse">
<stop stop-color="#8AC8D7"/>
<stop offset="1" stop-color="#429FC5"/>
</linearGradient>
<clipPath id="clip0_520_1071">
<rect width="412" height="650" rx="10" fill="white"/>
</clipPath>
<clipPath id="clip1_520_1071">
<rect width="1000.85" height="667.236" fill="white" transform="translate(-15 -17)"/>
</clipPath>
<clipPath id="clip2_520_1071">
<rect width="213.094" height="145.337" fill="white" transform="translate(118.561 239.451)"/>
</clipPath>
<clipPath id="clip3_520_1071">
<rect width="57.4296" height="24.4328" fill="white" transform="translate(264.28 323.096)"/>
</clipPath>
<clipPath id="clip4_520_1071">
<rect width="28.4629" height="34.5081" fill="white" transform="translate(214.877 325.172) rotate(-12.7841)"/>
</clipPath>
<clipPath id="clip5_520_1071">
<rect width="213.094" height="145.337" fill="white" transform="translate(113.977 241.293)"/>
</clipPath>
<clipPath id="clip6_520_1071">
<rect width="57.4296" height="24.4328" fill="white" transform="translate(259.696 324.938)"/>
</clipPath>
<clipPath id="clip7_520_1071">
<rect width="28.4629" height="34.5081" fill="white" transform="translate(210.295 327.014) rotate(-12.7841)"/>
</clipPath>
<clipPath id="clip8_520_1071">
<rect width="568.896" height="152.497" fill="white" transform="translate(298.832 598.75) rotate(-17.5507)"/>
</clipPath>
</defs>
</svg>
